<svg xmlns="http://www.w3.org/2000/svg" version="1.1" xmlns:xlink="http://www.w3.org/1999/xlink" viewBox="0 0 200 200"><rect width="200" height="200" fill="url('#gradient')"></rect><defs><linearGradient id="gradient" gradientTransform="rotate(45 0.5 0.5)"><stop offset="0%" stop-color="#2b2b2b"></stop><stop offset="100%" stop-color="#999999"></stop></linearGradient></defs><g><g fill="#000000" transform="matrix(2.9514811849479585,0,0,2.9514811849479585,6.834111844510247,115.99695004630414)" stroke="#000000" stroke-width="0"><path d="M6.85 0L1.07 0L1.07-14.22L6.18-14.22Q8.93-14.22 10.36-13.21Q11.79-12.21 11.79-10.29L11.79-10.29Q11.79-9.19 11.28-8.41Q10.77-7.63 9.79-7.26L9.79-7.26Q10.90-6.96 11.49-6.16Q12.09-5.36 12.09-4.21L12.09-4.21Q12.09-2.12 10.77-1.07Q9.44-0.02 6.85 0L6.85 0ZM6.90-6.04L4.50-6.04L4.50-2.64L6.75-2.64Q7.68-2.64 8.17-3.06Q8.67-3.49 8.67-4.26L8.67-4.26Q8.67-6.04 6.90-6.04L6.90-6.04ZM4.50-11.57L4.50-8.29L6.29-8.29Q7.41-8.30 7.89-8.70Q8.37-9.10 8.37-9.88L8.37-9.88Q8.37-10.78 7.85-11.18Q7.33-11.57 6.18-11.57L6.18-11.57L4.50-11.57ZM17.29-15L17.29 0L13.99 0L13.99-15L17.29-15ZM18.92-4.82L18.91-5.38Q18.91-6.96 19.52-8.20Q20.14-9.43 21.29-10.10Q22.44-10.76 23.99-10.76L23.99-10.76Q26.37-10.76 27.73-9.29Q29.10-7.82 29.10-5.29L29.10-5.29L29.10-5.18Q29.10-2.71 27.73-1.25Q26.36 0.20 24.01 0.20L24.01 0.20Q21.76 0.20 20.39-1.16Q19.02-2.51 18.92-4.82L18.92-4.82ZM22.21-5.77L22.20-5.18Q22.20-3.71 22.66-3.03Q23.12-2.34 24.01-2.34L24.01-2.34Q25.77-2.34 25.81-5.05L25.81-5.05L25.81-5.38Q25.81-8.22 23.99-8.22L23.99-8.22Q22.34-8.22 22.21-5.77L22.21-5.77ZM30.17-5.24L30.17-5.36Q30.17-6.96 30.69-8.19Q31.22-9.42 32.21-10.09Q33.19-10.76 34.50-10.76L34.50-10.76Q36.15-10.76 37.08-9.65L37.08-9.65L37.20-10.57L40.19-10.57L40.19-0.40Q40.19 1.00 39.54 2.03Q38.89 3.06 37.66 3.61Q36.43 4.16 34.80 4.16L34.80 4.16Q33.64 4.16 32.55 3.72Q31.46 3.28 30.89 2.58L30.89 2.58L32.27 0.64Q33.18 1.73 34.69 1.73L34.69 1.73Q36.88 1.73 36.88-0.52L36.88-0.52L36.88-0.85Q35.93 0.20 34.48 0.20L34.48 0.20Q32.55 0.20 31.36-1.28Q30.17-2.76 30.17-5.24L30.17-5.24ZM33.47-5.16L33.47-5.16Q33.47-3.86 33.96-3.10Q34.44-2.34 35.32-2.34L35.32-2.34Q36.39-2.34 36.88-3.06L36.88-3.06L36.88-7.50Q36.40-8.22 35.34-8.22L35.34-8.22Q34.46-8.22 33.96-7.44Q33.47-6.65 33.47-5.16ZM48.45 0L48.35-1.14Q47.30 0.20 45.53 0.20L45.53 0.20Q43.79 0.20 42.90-0.82Q42.00-1.83 42.00-3.72L42.00-3.72L42.00-10.57L45.29-10.57L45.29-3.70Q45.29-2.34 46.61-2.34L46.61-2.34Q47.74-2.34 48.22-3.15L48.22-3.15L48.22-10.57L51.53-10.57L51.53 0L48.45 0ZM58.87-2.97L58.87-2.97Q58.87-3.39 58.43-3.64Q57.99-3.90 56.76-4.17Q55.53-4.44 54.73-4.89Q53.93-5.33 53.51-5.97Q53.09-6.60 53.09-7.42L53.09-7.42Q53.09-8.88 54.29-9.82Q55.49-10.76 57.43-10.76L57.43-10.76Q59.52-10.76 60.79-9.81Q62.06-8.87 62.06-7.32L62.06-7.32L58.76-7.32Q58.76-8.59 57.42-8.59L57.42-8.59Q56.90-8.59 56.55-8.31Q56.20-8.02 56.20-7.59L56.20-7.59Q56.20-7.15 56.63-6.88Q57.06-6.60 58.00-6.43Q58.95-6.25 59.66-6.01L59.66-6.01Q62.04-5.19 62.04-3.07L62.04-3.07Q62.04-1.62 60.76-0.71Q59.47 0.20 57.43 0.20L57.43 0.20Q56.07 0.20 55.01-0.29Q53.95-0.78 53.35-1.62Q52.75-2.46 52.75-3.39L52.75-3.39L55.83-3.39Q55.85-2.66 56.32-2.32Q56.79-1.98 57.52-1.98L57.52-1.98Q58.19-1.98 58.53-2.26Q58.87-2.53 58.87-2.97Z"></path></g></g></svg>